<?xml version="1.0" encoding="utf-8"?>
<!-- Generator: Adobe Illustrator 16.0.0, SVG Export Plug-In . SVG Version: 6.00 Build 0)  -->
<!DOCTYPE svg PUBLIC "-//W3C//DTD SVG 1.1//EN" "http://www.w3.org/Graphics/SVG/1.1/DTD/svg11.dtd">
<svg version="1.1" id="Layer_1" xmlns="http://www.w3.org/2000/svg" xmlns:xlink="http://www.w3.org/1999/xlink" x="0px" y="0px"
	 width="128px" height="128px" viewBox="0 0 128 128" enable-background="new 0 0 128 128" xml:space="preserve">
<g>
	<g>
		<path fill-rule="evenodd" clip-rule="evenodd" fill="#9B58B7" d="M38.298,18.621l15.12,31.336
			c0.604-0.152,3.718-1.183,4.333-1.309l-13.52-32.924C42.185,16.568,40.204,17.535,38.298,18.621L38.298,18.621z M112.018,84.804
			l-8.438-3.529c-0.104,1.232-0.263,2.45-0.469,3.652l6.886,4.022C110.73,87.602,111.402,86.218,112.018,84.804L112.018,84.804z
			 M114.339,78.322c-0.421,1.482-0.909,2.939-1.457,4.366l-9.047-3.783c0.171-1.091,0.291-2.199,0.357-3.321L114.339,78.322
			L114.339,78.322z M115.772,71.594l-11.681-1.538c0.103,1.046,0.156,2.106,0.163,3.178l10.657,2.875
			C115.263,74.626,115.552,73.12,115.772,71.594L115.772,71.594z M116.312,64.745l-13.15,0.023c0.249,0.965,0.455,1.947,0.62,2.942
			l12.273,1.616C116.207,67.817,116.291,66.289,116.312,64.745L116.312,64.745z M115.961,57.889l-14.47,1.957
			c0.367,0.861,0.699,1.742,0.997,2.638l13.808-0.024C116.25,60.918,116.138,59.394,115.961,57.889L115.961,57.889z M114.718,51.141
			L99.2,55.387c0.454,0.744,0.88,1.509,1.277,2.289l15.168-2.051C115.401,54.108,115.092,52.612,114.718,51.141L114.718,51.141z
			 M112.595,44.621c0.565,1.41,1.069,2.852,1.512,4.318l-16.227,4.44c-0.466-0.659-0.955-1.301-1.466-1.924L112.595,44.621
			L112.595,44.621z M109.632,38.439L93.264,48.08c0.538,0.506,1.059,1.027,1.564,1.564l16.873-7.127
			C111.07,41.125,110.378,39.765,109.632,38.439L109.632,38.439z M105.887,32.701L89.915,45.306
			c0.585,0.428,1.157,0.871,1.717,1.333l16.835-10.166C107.661,35.177,106.801,33.917,105.887,32.701L105.887,32.701z
			 M101.421,27.503c1.065,1.088,2.086,2.222,3.054,3.4L87.903,43.947c-0.567-0.355-1.146-0.695-1.735-1.02L101.421,27.503
			L101.421,27.503z M96.321,22.926c1.2,0.941,2.355,1.937,3.467,2.979L84.441,42.041c-0.556-0.265-1.119-0.515-1.689-0.751
			L96.321,22.926L96.321,22.926z M90.66,19.058c1.315,0.777,2.594,1.611,3.832,2.498L80.539,40.458
			c-0.544-0.183-1.093-0.352-1.647-0.508L90.66,19.058L90.66,19.058z M84.541,15.958L75.204,39.13
			c0.557,0.092,1.108,0.198,1.655,0.316L88.67,17.936C87.327,17.218,85.95,16.558,84.541,15.958L84.541,15.958z M78.061,13.695
			l-6.354,25.033c0.544,0.035,1.087,0.082,1.625,0.143l9.087-23.76C80.994,14.578,79.542,14.104,78.061,13.695L78.061,13.695z
			 M71.334,12.305c1.525,0.212,3.031,0.485,4.513,0.825l-6.076,25.525c-0.11,0-0.22-0.004-0.33-0.004
			c-0.441,0-0.881,0.012-1.318,0.027L71.334,12.305L71.334,12.305z M64.478,11.81l0.36,27.146c0.535-0.071,1.075-0.129,1.619-0.175
			l2.606-26.74C67.552,11.899,66.022,11.822,64.478,11.81L64.478,11.81z M57.606,12.208c1.509-0.188,3.039-0.309,4.586-0.365
			l1.003,27.369c-0.559,0.1-1.112,0.214-1.66,0.342L57.606,12.208L57.606,12.208z M51.895,13.245
			c1.125-0.271,2.265-0.503,3.416-0.698L60,39.949c-0.464,0.131-0.923,0.271-1.379,0.42L51.895,13.245L51.895,13.245z M46.303,14.92
			c1.095-0.397,2.207-0.759,3.335-1.083l7.837,26.926c-0.136,0.05-0.27,0.102-0.404,0.154c-0.433,0.058-0.989,0.137-1.256,0.177
			L46.303,14.92z"/>
		<g>
			<path fill-rule="evenodd" clip-rule="evenodd" fill="#9B58B7" d="M101.638,89.078c0.452-0.529,0.818-1.108,1.002-1.81
				l6.137,3.746c-0.561,0.925-1.148,1.832-1.766,2.722C105.261,92.417,103.42,90.844,101.638,89.078z"/>
			<path fill-rule="evenodd" clip-rule="evenodd" fill="#9B58B7" d="M15.199,82.682c-9.142-23.738,0.178-50.04,20.931-63.087
				l2.173,4.653c-10.231,8.343-16.767,21.048-16.767,35.278c0,21.831,15.374,40.067,35.886,44.481l-0.151,0.169
				c-2.791,3.094-5.767,6.118-8.873,8.899l-0.605,0.542C33.356,108.896,21.084,97.96,15.199,82.682z"/>
			<g>
				<path fill-rule="evenodd" clip-rule="evenodd" fill="#9B58B7" d="M68.944,41.316C87.302,41.19,93.657,59.508,92.087,66.81
					c-2.382,11.072,5.156,21.291,14.138,28.041c-15.33,21.771-43.325,24.04-56.917,19.241c10.443-7.229,21.08-22.122,24.643-34.588
					c1.536-5.378,2.724-10.581,2.659-13.312c-0.682,1.357-3.22,11.387-7.817,21.233c-2.435,5.213-5.117,9.762-9.18,14.073
					c-3.396-6.76-5.089-25.718-4.982-25.749c4.268-1.279,5.938-2.868,7.935-4.993c0.901-0.959,2.006-2.717,3.718-6.207
					c1.386-2.828-1.361,0.419-5.181,0.336c-5.495-0.122-13.002,4.165-13.638,9.88c-0.429,3.86,2.847,13.209,4.332,16.597
					c-5.224-3.595-8.927-12.946-9.211-19.523c0.575-0.727,1.19-1.418,1.924-2.092c2.093-1.92,4.685-3.334,7.271-4.469
					c4.39-1.928,9.02-2.821,13.772-3.237c2.133-0.187,4.269-0.274,6.408-0.351c1.895-0.066,3.804-0.117,5.692-0.28l1.001-0.085
					l0.025-2.008l-0.998-0.111c-7.349-0.818-15.016-2.229-22.019-4.655c-2.208-0.765-5.904-2.201-8.406-3.881
					C51.231,44.339,58.042,41.391,68.944,41.316z"/>
				<path fill-rule="evenodd" clip-rule="evenodd" fill="#9B58B7" d="M44.632,49.909c3.001,3.357,14.471,8.345,32.927,10.398
					c-6.821,0.582-16.713-0.221-26.225,3.956c-7.211,3.165-9.259,6.268-11.187,9.042C39.063,71.424,38.326,54.458,44.632,49.909z"/>
			</g>
		</g>
	</g>
	<path fill-rule="evenodd" clip-rule="evenodd" fill="#9B58B7" d="M38.298,18.621c1.872-1.095,3.865-2.041,5.934-2.896l13.52,32.924
		l-4.333,1.309L38.298,18.621z"/>
</g>
</svg>
